<svg width="520" height="521" viewBox="0 0 520 521" fill="none" xmlns="http://www.w3.org/2000/svg">
<path d="M520 462.696C520 494.604 494.13 520.474 462.222 520.474H57.7778C25.87 520.474 0 494.604 0 462.696V58.2514C0 26.3436 25.87 0.473625 57.7778 0.473625H462.222C494.13 0.473625 520 26.3436 520 58.2514V462.696Z" fill="#6160DC"/>
<path fill-rule="evenodd" clip-rule="evenodd" d="M261.949 123.61H299.157C346.773 123.61 385.374 162.21 385.374 209.826C385.374 257.442 346.773 296.043 299.157 296.043H269.813V229.428H328.604H345.757L294.299 175.519L296.749 209.825H264.894V209.825H261.949V123.61ZM250.149 209.825V123.61V111.811H261.949H299.157C353.29 111.811 397.173 155.694 397.173 209.826C397.173 263.959 353.29 307.842 299.157 307.842H269.813V394.057V405.857H258.013H220.805C166.672 405.857 122.789 361.973 122.789 307.841C122.789 253.708 166.672 209.825 220.805 209.825H250.149ZM250.149 221.624H220.805C173.189 221.624 134.589 260.225 134.589 307.841C134.589 355.457 173.189 394.057 220.805 394.057H258.013V307.842H250.149V307.839H225.718L228.169 342.145L176.71 288.236H193.863H250.149V221.624Z" fill="white"/>
</svg>
